<svg xmlns="http://www.w3.org/2000/svg" viewBox="0 0 286 333" width="286" height="333">
	<style>
		tspan { white-space:pre }
		.shp0 { fill: #000000 } 
	</style>
	<g id="Layer">
		<path id="Layer" class="shp0" d="M150.26 213.8L150.26 102.59C150.26 99.66 147.88 97.28 144.95 97.28L61.98 97.28C59.04 97.28 56.66 99.66 56.66 102.59C56.66 105.53 59.04 107.91 61.98 107.91L139.64 107.91L139.64 212.73L31.87 212.73L31.87 107.91L40.73 107.91C43.66 107.91 46.04 105.53 46.04 102.59C46.04 99.66 43.66 97.28 40.73 97.28L26.56 97.28C23.63 97.28 21.25 99.66 21.25 102.59L21.25 213.8C21.25 219.07 25.54 223.36 30.81 223.36L140.7 223.36C145.97 223.36 150.26 219.07 150.26 213.8Z" />
		<path id="Layer" fill-rule="evenodd" class="shp0" d="M279.59 145.21L239.55 198.13L239.55 268.1C239.55 285.42 232.88 301.69 220.77 313.9C208.63 326.15 192.42 332.9 175.12 332.9C139.39 332.9 110.33 303.83 110.33 268.1L110.33 264.66L103.6 264.66C100.66 264.66 98.28 262.29 98.28 259.35L98.28 244.61L73.22 244.61L73.22 259.35C73.22 262.29 70.85 264.66 67.91 264.66L43.83 264.66C40.9 264.66 38.52 262.29 38.52 259.35L38.52 244.61L30.81 244.61C13.82 244.61 0 230.78 0 213.8L0 58.68C0 41.69 13.82 27.87 30.81 27.87L55.37 27.87L55.37 18.83C55.37 8.45 63.81 0 74.2 0L97.31 0C107.7 0 116.14 8.45 116.14 18.83L116.14 27.87L140.7 27.87C157.69 27.87 171.51 41.69 171.51 58.68L171.51 213.8C171.51 230.79 157.69 244.61 140.7 244.61L132.99 244.61L132.99 259.35C132.99 262.29 130.61 264.66 127.68 264.66L120.95 264.66L120.95 268.1C120.95 297.97 145.25 322.28 175.12 322.28C204.79 322.28 228.92 297.97 228.92 268.1L228.92 198.13L188.88 145.21C184.93 139.99 182.84 133.75 182.84 127.18C182.84 110.7 196.25 97.28 212.74 97.28C220.94 97.28 228.67 100.65 234.24 106.4C239.8 100.65 247.53 97.28 255.73 97.28C272.22 97.28 285.63 110.7 285.63 127.18C285.63 133.75 283.54 139.99 279.59 145.21ZM65.99 27.87L105.52 27.87L105.52 18.83C105.52 14.3 101.84 10.62 97.31 10.62L74.2 10.62C69.67 10.62 65.99 14.3 65.99 18.83L65.99 27.87ZM108.91 239.29L108.91 254.04L122.37 254.04L122.37 239.29C122.37 236.36 124.75 233.98 127.68 233.98L140.7 233.98C151.83 233.98 160.89 224.93 160.89 213.8L160.89 58.68C160.89 47.55 151.83 38.49 140.7 38.49L30.81 38.49C19.68 38.49 10.62 47.55 10.62 58.68L10.62 213.8C10.62 224.93 19.68 233.98 30.81 233.98L43.83 233.98C46.76 233.98 49.14 236.36 49.14 239.29L49.14 254.04L62.6 254.04L62.6 239.29C62.6 236.36 64.98 233.98 67.91 233.98L103.6 233.98C106.53 233.98 108.91 236.36 108.91 239.29ZM275.01 127.18C275.01 116.55 266.36 107.9 255.73 107.9C248.74 107.9 242.28 111.71 238.88 117.83C237.94 119.51 236.16 120.55 234.24 120.55C232.31 120.55 230.53 119.51 229.59 117.83C226.19 111.71 219.73 107.9 212.74 107.9C202.11 107.9 193.46 116.55 193.46 127.18C193.46 131.42 194.81 135.44 197.36 138.8L234.24 187.55L271.11 138.8C273.66 135.44 275.01 131.42 275.01 127.18Z" />
	</g>
</svg>